# 3ds Max Wavefront OBJ Exporter v0.97b - (c)2007 guruware
# File Created: 18.12.2013 12:21:38

mtllib Street1Lane80m.mtl

#
# object Street1Lane80m
#

v  -5.0000 0.0500 40.0000
v  5.0000 0.0500 40.0000
v  5.0000 0.0500 -40.0000
v  -5.0000 0.0500 -40.0000
v  -7.3500 0.1500 -40.0000
v  -7.3500 0.1500 40.0000
v  -7.3500 0.3000 40.0000
v  -7.3500 0.3000 -40.0000
v  -10.3500 0.0000 -40.0000
v  -10.3500 0.0000 40.0000
v  -10.3500 0.3000 40.0000
v  -10.3500 0.3000 -40.0000
v  -5.3500 0.0000 -40.0000
v  -5.3500 0.0000 40.0000
v  -5.3500 0.3000 40.0000
v  -5.3500 0.3000 -40.0000
v  7.0000 0.3000 -40.0000
v  7.0000 0.3000 40.0000
v  7.3500 0.3000 40.0000
v  7.3500 0.3000 -40.0000
v  7.0000 0.0000 -40.0000
v  7.0000 0.0000 40.0000
v  7.3500 0.1500 40.0000
v  10.0000 0.1500 40.0000
v  10.0000 0.1500 -40.0000
v  7.3500 0.1500 -40.0000
v  10.0000 0.3000 -40.0000
v  10.0000 0.3000 40.0000
v  10.3500 0.3000 40.0000
v  10.3500 0.3000 -40.0000
v  5.0000 0.3000 -40.0000
v  5.0000 0.3000 40.0000
v  5.3500 0.3000 40.0000
v  5.3500 0.3000 -40.0000
v  5.0000 0.0000 -40.0000
v  5.0000 0.0000 40.0000
v  -7.0000 0.3000 -40.0000
v  -7.0000 0.3000 40.0000
v  -7.0000 0.0000 -40.0000
v  -7.0000 0.0000 40.0000
v  -10.0000 0.1500 -40.0000
v  -10.0000 0.1500 40.0000
v  -10.0000 0.3000 -40.0000
v  -10.0000 0.3000 40.0000
v  -5.0000 0.3000 -40.0000
v  -5.0000 0.3000 40.0000
v  -5.0000 0.0000 -40.0000
v  -5.0000 0.0000 40.0000
v  10.3500 0.0000 -40.0000
v  10.3500 0.0000 40.0000
v  5.3500 0.0000 -40.0000
v  5.3500 0.0000 40.0000
# 52 vertices

vn 0.0000 1.0000 -0.0000
vn -1.0000 0.0000 0.0000
vn -1.0000 0.0000 -0.0000
vn -1.0000 -0.0000 -0.0000
vn 0.0000 1.0000 0.0000
vn 1.0000 0.0000 -0.0000
vn -0.0000 1.0000 0.0000
vn 1.0000 0.0000 0.0000
# 8 vertex normals

vt 8.0089 0.0000 0.0000
vt 8.0089 1.0000 0.0000
vt 0.0000 1.0000 0.0000
vt 0.0000 0.0000 0.0000
vt -0.0000 16.5000 0.5817
vt 29.3333 16.5000 0.5817
vt 29.3333 16.5550 0.5817
vt -0.0000 16.5550 0.5817
vt -0.0000 16.4450 0.6150
vt 29.3333 16.4450 0.6150
vt 29.3333 16.5550 0.6150
vt -0.0000 16.5550 0.6150
vt -0.0000 16.4450 0.5594
vt 29.3333 16.4450 0.5594
vt 29.3333 16.5550 0.5594
vt -0.0000 16.5550 0.5594
vt 13.9333 0.0000 0.5017
vt 13.9333 29.3333 0.5017
vt 13.8050 29.3333 0.5017
vt 13.8050 0.0000 0.5017
vt 0.0000 16.4450 0.4222
vt 29.3333 16.4450 0.4222
vt 29.3333 16.5550 0.4222
vt 0.0000 16.5550 0.4222
vt 20.0800 42.6667 0.9236
vt 18.6667 42.6667 0.6111
vt 18.6667 0.0000 0.0000
vt 20.0800 0.0000 0.3125
vt 12.8333 0.0000 0.5017
vt 12.8333 29.3333 0.5017
vt 12.7050 29.3333 0.5017
vt 12.7050 0.0000 0.5017
vt 0.0000 16.5000 0.3889
vt 29.3333 16.5000 0.3889
vt 29.3333 16.5550 0.3889
vt 0.0000 16.5550 0.3889
vt 14.6667 0.0000 0.5017
vt 14.6667 29.3333 0.5017
vt 14.5383 29.3333 0.5017
vt 14.5383 0.0000 0.5017
vt 0.0000 16.4450 0.4444
vt 29.3333 16.4450 0.4444
vt 29.3333 16.5550 0.4444
vt 0.0000 16.5550 0.4444
vt 19.0667 -0.0000 0.5017
vt 19.1950 -0.0000 0.5017
vt 19.1950 29.3333 0.5017
vt 19.0667 29.3333 0.5017
vt 33.0000 16.4450 0.5778
vt 33.0000 16.5550 0.5778
vt 3.6667 16.5550 0.5778
vt 3.6667 16.4450 0.5778
vt 27.9200 -0.0000 1.0000
vt 29.3333 -0.0000 0.6875
vt 29.3333 42.6667 0.0764
vt 27.9200 42.6667 0.3889
vt 20.1667 -0.0000 0.5017
vt 20.2950 -0.0000 0.5017
vt 20.2950 29.3333 0.5017
vt 20.1667 29.3333 0.5017
vt 33.0000 16.5000 0.6111
vt 33.0000 16.5550 0.6111
vt 3.6667 16.5550 0.6111
vt 3.6667 16.5000 0.6111
vt 18.3333 -0.0000 0.5017
vt 18.4617 -0.0000 0.5017
vt 18.4617 29.3333 0.5017
vt 18.3333 29.3333 0.5017
vt 33.0000 16.4450 0.5556
vt 33.0000 16.5550 0.5556
vt 3.6667 16.5550 0.5556
vt 3.6667 16.4450 0.5556
vt 33.0000 16.5000 0.4183
vt 33.0000 16.5550 0.4183
vt 3.6667 16.5550 0.4183
vt 3.6667 16.5000 0.4183
vt 33.0000 16.4450 0.3850
vt 33.0000 16.5550 0.3850
vt 3.6667 16.5550 0.3850
vt 3.6667 16.4450 0.3850
vt 33.0000 16.4450 0.4406
vt 33.0000 16.5550 0.4406
vt 3.6667 16.5550 0.4406
vt 3.6667 16.4450 0.4406
# 84 texture coords

g Street1Lane80m
usemtl Material_Street
s 1
f 1/1/1 2/2/1 3/3/1 
f 3/3/1 4/4/1 1/1/1 
usemtl Material_Pavement
s 2
f 5/5/2 6/6/2 7/7/2 
f 7/7/2 8/8/2 5/5/2 
f 9/9/3 10/10/3 11/11/3 
f 11/11/3 12/12/3 9/9/3 
f 13/13/3 14/14/3 15/15/3 
f 15/15/3 16/16/3 13/13/3 
s 1
f 17/17/1 18/18/1 19/19/1 
f 19/19/1 20/20/1 17/17/1 
s 2
f 21/21/4 22/22/4 18/23/4 
f 18/23/4 17/24/3 21/21/4 
s 1
f 23/25/1 24/26/1 25/27/1 
f 25/27/1 26/28/1 23/25/1 
f 27/29/5 28/30/1 29/31/5 
f 29/31/5 30/32/5 27/29/5 
s 2
f 25/33/3 24/34/3 28/35/3 
f 28/35/3 27/36/3 25/33/3 
s 1
f 31/37/1 32/38/1 33/39/1 
f 33/39/1 34/40/1 31/37/1 
s 2
f 35/41/3 36/42/3 32/43/3 
f 32/43/3 31/44/3 35/41/3 
s 1
f 37/45/1 8/46/1 7/47/1 
f 7/47/1 38/48/1 37/45/1 
s 2
f 39/49/6 37/50/6 38/51/6 
f 38/51/6 40/52/6 39/49/6 
s 1
f 5/53/7 41/54/7 42/55/7 
f 42/55/7 6/56/7 5/53/7 
f 43/57/1 12/58/1 11/59/1 
f 11/59/1 44/60/1 43/57/1 
s 2
f 41/61/8 43/62/6 44/63/8 
f 44/63/8 42/64/8 41/61/8 
s 1
f 45/65/1 16/66/1 15/67/1 
f 15/67/1 46/68/1 45/65/1 
s 2
f 47/69/6 45/70/6 46/71/6 
f 46/71/6 48/72/6 47/69/6 
f 26/73/8 20/74/8 19/75/8 
f 19/75/8 23/76/8 26/73/8 
f 49/77/8 30/78/8 29/79/8 
f 29/79/8 50/80/8 49/77/8 
f 51/81/8 34/82/8 33/83/8 
f 33/83/8 52/84/8 51/81/8 
# 42 faces

