# 3ds Max Wavefront OBJ Exporter v0.97b - (c)2007 guruware
# File Created: 18.12.2013 12:22:20

mtllib Street1Lane90m.mtl

#
# object Street1Lane90m
#

v  -5.0000 0.0500 45.0000
v  5.0000 0.0500 45.0000
v  5.0000 0.0500 -45.0000
v  -5.0000 0.0500 -45.0000
v  -7.0000 0.3000 -45.0000
v  -7.3500 0.3000 -45.0000
v  -7.3500 0.3000 45.0000
v  -7.0000 0.3000 45.0000
v  -7.0000 -0.0000 -45.0000
v  -7.0000 -0.0000 45.0000
v  -7.3500 0.1500 45.0000
v  -7.3500 0.1500 -45.0000
v  -10.0000 0.1500 -45.0000
v  -10.0000 0.1500 45.0000
v  -10.0000 0.3000 -45.0000
v  -10.3500 0.3000 -45.0000
v  -10.3500 0.3000 45.0000
v  -10.0000 0.3000 45.0000
v  -10.3500 -0.0000 45.0000
v  -10.3500 -0.0000 -45.0000
v  -5.0000 0.3000 -45.0000
v  -5.3500 0.3000 -45.0000
v  -5.3500 0.3000 45.0000
v  -5.0000 0.3000 45.0000
v  -5.0000 -0.0000 -45.0000
v  -5.0000 -0.0000 45.0000
v  -5.3500 -0.0000 45.0000
v  -5.3500 -0.0000 -45.0000
v  7.0000 0.3000 45.0000
v  7.3500 0.3000 45.0000
v  7.3500 0.3000 -45.0000
v  7.0000 0.3000 -45.0000
v  7.0000 -0.0000 45.0000
v  7.0000 -0.0000 -45.0000
v  7.3500 0.1500 -45.0000
v  7.3500 0.1500 45.0000
v  10.0000 0.1500 45.0000
v  10.0000 0.1500 -45.0000
v  10.0000 0.3000 45.0000
v  10.3500 0.3000 45.0000
v  10.3500 0.3000 -45.0000
v  10.0000 0.3000 -45.0000
v  10.3500 -0.0000 -45.0000
v  10.3500 -0.0000 45.0000
v  5.0000 0.3000 45.0000
v  5.3500 0.3000 45.0000
v  5.3500 0.3000 -45.0000
v  5.0000 0.3000 -45.0000
v  5.0000 -0.0000 45.0000
v  5.0000 -0.0000 -45.0000
v  5.3500 -0.0000 -45.0000
v  5.3500 -0.0000 45.0000
# 52 vertices

vn 0.0000 1.0000 -0.0000
vn 1.0000 0.0000 -0.0000
vn -1.0000 0.0000 0.0000
vn -0.0000 1.0000 0.0000
vn 1.0000 0.0000 0.0000
vn -1.0000 0.0000 -0.0000
# 6 vertex normals

vt 9.0100 0.0000 0.0000
vt 9.0100 1.0000 0.0000
vt 0.0000 1.0000 0.0000
vt 0.0000 0.0000 0.0000
vt 19.0667 -0.0000 0.5017
vt 19.1950 -0.0000 0.5017
vt 19.1950 33.0000 0.5017
vt 19.0667 33.0000 0.5017
vt 33.0000 16.4450 0.5778
vt 33.0000 16.5550 0.5778
vt 0.0000 16.5550 0.5778
vt 0.0000 16.4450 0.5778
vt 33.0000 16.5000 0.5817
vt 33.0000 16.5550 0.5817
vt -0.0000 16.5550 0.5817
vt -0.0000 16.5000 0.5817
vt 29.3333 -0.0000 0.6875
vt 29.3333 48.0000 0.0000
vt 27.9200 48.0000 0.3125
vt 27.9200 -0.0000 1.0000
vt 20.1667 -0.0000 0.5017
vt 20.2950 -0.0000 0.5017
vt 20.2950 33.0000 0.5017
vt 20.1667 33.0000 0.5017
vt 33.0000 16.5000 0.6111
vt 33.0000 16.5550 0.6111
vt 0.0000 16.5550 0.6111
vt 0.0000 16.5000 0.6111
vt 33.0000 16.4450 0.6150
vt 33.0000 16.5550 0.6150
vt -0.0000 16.5550 0.6150
vt -0.0000 16.4450 0.6150
vt 18.3333 -0.0000 0.5017
vt 18.4617 -0.0000 0.5017
vt 18.4617 33.0000 0.5017
vt 18.3333 33.0000 0.5017
vt 33.0000 16.4450 0.5556
vt 33.0000 16.5550 0.5556
vt 0.0000 16.5550 0.5556
vt 0.0000 16.4450 0.5556
vt 33.0000 16.4450 0.5594
vt 33.0000 16.5550 0.5594
vt -0.0000 16.5550 0.5594
vt -0.0000 16.4450 0.5594
vt 13.9333 33.0000 0.5017
vt 13.8050 33.0000 0.5017
vt 13.8050 0.0000 0.5017
vt 13.9333 0.0000 0.5017
vt 33.0000 16.4450 0.4222
vt 33.0000 16.5550 0.4222
vt 0.0000 16.5550 0.4222
vt 0.0000 16.4450 0.4222
vt 33.0000 16.5000 0.4183
vt 33.0000 16.5550 0.4183
vt -0.0000 16.5550 0.4183
vt -0.0000 16.5000 0.4183
vt 18.6667 48.0000 0.6875
vt 18.6667 0.0000 0.0000
vt 20.0800 0.0000 0.3125
vt 20.0800 48.0000 1.0000
vt 12.8333 33.0000 0.5017
vt 12.7050 33.0000 0.5017
vt 12.7050 0.0000 0.5017
vt 12.8333 0.0000 0.5017
vt 33.0000 16.5000 0.3889
vt 33.0000 16.5550 0.3889
vt 0.0000 16.5550 0.3889
vt 0.0000 16.5000 0.3889
vt 33.0000 16.4450 0.3850
vt 33.0000 16.5550 0.3850
vt -0.0000 16.5550 0.3850
vt -0.0000 16.4450 0.3850
vt 14.6667 33.0000 0.5017
vt 14.5383 33.0000 0.5017
vt 14.5383 0.0000 0.5017
vt 14.6667 0.0000 0.5017
vt 33.0000 16.4450 0.4444
vt 33.0000 16.5550 0.4444
vt 0.0000 16.5550 0.4444
vt 0.0000 16.4450 0.4444
vt 33.0000 16.4450 0.4406
vt 33.0000 16.5550 0.4406
vt -0.0000 16.5550 0.4406
vt -0.0000 16.4450 0.4406
# 84 texture coords

g Street1Lane90m
usemtl Material_Street
s 1
f 1/1/1 2/2/1 3/3/1 
f 3/3/1 4/4/1 1/1/1 
usemtl Material_Pavement
f 5/5/1 6/6/1 7/7/1 
f 7/7/1 8/8/1 5/5/1 
s 2
f 9/9/2 5/10/2 8/11/2 
f 8/11/2 10/12/2 9/9/2 
f 11/13/3 7/14/3 6/15/3 
f 6/15/3 12/16/3 11/13/3 
s 1
f 13/17/4 14/18/4 11/19/4 
f 11/19/4 12/20/4 13/17/4 
f 15/21/1 16/22/1 17/23/1 
f 17/23/1 18/24/1 15/21/1 
s 2
f 13/25/5 15/26/2 18/27/5 
f 18/27/5 14/28/5 13/25/5 
f 19/29/6 17/30/6 16/31/6 
f 16/31/6 20/32/6 19/29/6 
s 1
f 21/33/1 22/34/1 23/35/1 
f 23/35/1 24/36/1 21/33/1 
s 2
f 25/37/2 21/38/2 24/39/2 
f 24/39/2 26/40/2 25/37/2 
f 27/41/6 23/42/6 22/43/6 
f 22/43/6 28/44/6 27/41/6 
s 1
f 29/45/1 30/46/1 31/47/1 
f 31/47/1 32/48/1 29/45/1 
s 2
f 33/49/6 29/50/6 32/51/6 
f 32/51/6 34/52/6 33/49/6 
f 35/53/5 31/54/5 30/55/5 
f 30/55/5 36/56/5 35/53/5 
s 1
f 37/57/1 38/58/1 35/59/1 
f 35/59/1 36/60/1 37/57/1 
f 39/61/1 40/62/1 41/63/1 
f 41/63/1 42/64/1 39/61/1 
s 2
f 37/65/6 39/66/6 42/67/6 
f 42/67/6 38/68/6 37/65/6 
f 43/69/5 41/70/5 40/71/5 
f 40/71/5 44/72/5 43/69/5 
s 1
f 45/73/1 46/74/1 47/75/1 
f 47/75/1 48/76/1 45/73/1 
s 2
f 49/77/6 45/78/6 48/79/6 
f 48/79/6 50/80/6 49/77/6 
f 51/81/5 47/82/5 46/83/5 
f 46/83/5 52/84/5 51/81/5 
# 42 faces

