# 3ds Max Wavefront OBJ Exporter v0.97b - (c)2007 guruware
# File Created: 18.12.2013 12:36:56

mtllib Street2Lanes80m.mtl

#
# object Street2Lanes80m
#

v  5.0000 0.0500 40.0000
v  15.0000 0.0500 40.0000
v  15.0000 0.0500 -40.0000
v  5.0000 0.0500 -40.0000
v  -5.0000 0.0500 -40.0000
v  -15.0000 0.0500 -40.0000
v  -15.0000 0.0500 40.0000
v  -5.0000 0.0500 40.0000
v  -15.0000 0.3000 -40.0000
v  -15.3500 0.3000 -40.0000
v  -15.3500 0.3000 40.0000
v  -15.0000 0.3000 40.0000
v  -15.0000 0.0000 -40.0000
v  -15.0000 0.0000 40.0000
v  -15.3500 0.0000 40.0000
v  -15.3500 0.0000 -40.0000
v  -17.0000 0.3000 -40.0000
v  -17.3500 0.3000 -40.0000
v  -17.3500 0.3000 40.0000
v  -17.0000 0.3000 40.0000
v  -17.0000 0.0000 -40.0000
v  -17.0000 0.0000 40.0000
v  -17.3500 0.1500 40.0000
v  -17.3500 0.1500 -40.0000
v  -20.0000 0.1500 -40.0000
v  -20.0000 0.1500 40.0000
v  -20.0000 0.3000 -40.0000
v  -20.3500 0.3000 -40.0000
v  -20.3500 0.3000 40.0000
v  -20.0000 0.3000 40.0000
v  -20.3500 0.0000 40.0000
v  -20.3500 0.0000 -40.0000
v  -5.0000 0.3000 40.0000
v  -4.6500 0.3000 40.0000
v  -4.6500 0.3000 -40.0000
v  -5.0000 0.3000 -40.0000
v  -5.0000 0.0000 40.0000
v  -5.0000 0.0000 -40.0000
v  -4.6500 0.0000 -40.0000
v  -4.6500 0.0000 40.0000
v  2.5000 0.3000 -40.0000
v  2.1500 0.3000 -40.0000
v  2.1500 0.3000 40.0000
v  2.5000 0.3000 40.0000
v  2.5000 0.0000 -40.0000
v  2.5000 0.0000 40.0000
v  2.1500 0.1500 40.0000
v  2.1500 0.1500 -40.0000
v  -2.1500 0.1500 -40.0000
v  -2.1500 0.1500 40.0000
v  -2.1500 0.3000 -40.0000
v  -2.5000 0.3000 -40.0000
v  -2.5000 0.3000 40.0000
v  -2.1500 0.3000 40.0000
v  -2.5000 0.0000 40.0000
v  -2.5000 0.0000 -40.0000
v  15.0000 0.3000 40.0000
v  15.3500 0.3000 40.0000
v  15.3500 0.3000 -40.0000
v  15.0000 0.3000 -40.0000
v  15.0000 0.0000 40.0000
v  15.0000 0.0000 -40.0000
v  15.3500 0.0000 -40.0000
v  15.3500 0.0000 40.0000
v  17.0000 0.3000 40.0000
v  17.3500 0.3000 40.0000
v  17.3500 0.3000 -40.0000
v  17.0000 0.3000 -40.0000
v  17.0000 0.0000 40.0000
v  17.0000 0.0000 -40.0000
v  17.3500 0.1500 -40.0000
v  17.3500 0.1500 40.0000
v  20.0000 0.1500 40.0000
v  20.0000 0.1500 -40.0000
v  20.0000 0.3000 40.0000
v  20.3500 0.3000 40.0000
v  20.3500 0.3000 -40.0000
v  20.0000 0.3000 -40.0000
v  20.3500 0.0000 -40.0000
v  20.3500 0.0000 40.0000
v  5.0000 0.3000 -40.0000
v  4.6500 0.3000 -40.0000
v  4.6500 0.3000 40.0000
v  5.0000 0.3000 40.0000
v  5.0000 0.0000 -40.0000
v  5.0000 0.0000 40.0000
v  4.6500 0.0000 40.0000
v  4.6500 0.0000 -40.0000
# 88 vertices

vn 0.0000 1.0000 -0.0000
vn 1.0000 0.0000 -0.0000
vn -1.0000 0.0000 0.0000
vn -1.0000 0.0000 -0.0000
vn -0.0000 1.0000 -0.0000
vn 1.0000 0.0000 0.0000
vn -0.0000 1.0000 0.0000
# 7 vertex normals

vt 8.0000 0.0000 0.0000
vt 8.0000 1.0000 0.0000
vt 0.0000 1.0000 0.0000
vt 0.0000 0.0000 0.0000
vt 11.0000 31.1667 0.5017
vt 10.8717 31.1667 0.5017
vt 10.8717 1.8333 0.5017
vt 11.0000 1.8333 0.5017
vt 31.1667 16.4450 0.3333
vt 31.1667 16.5550 0.3333
vt 1.8333 16.5550 0.3333
vt 1.8333 16.4450 0.3333
vt 31.1667 16.4450 0.3294
vt 31.1667 16.5550 0.3294
vt 1.8333 16.5550 0.3294
vt 1.8333 16.4450 0.3294
vt 10.2667 31.1667 0.5017
vt 10.1383 31.1667 0.5017
vt 10.1383 1.8333 0.5017
vt 10.2667 1.8333 0.5017
vt 31.1667 16.4450 0.3111
vt 31.1667 16.5550 0.3111
vt 1.8333 16.5550 0.3111
vt 1.8333 16.4450 0.3111
vt 31.1667 16.5000 0.3072
vt 31.1667 16.5550 0.3072
vt 1.8333 16.5550 0.3072
vt 1.8333 16.5000 0.3072
vt 13.3333 45.3428 0.0000
vt 13.3333 2.6672 0.6875
vt 14.7467 2.6672 1.0000
vt 14.7467 45.3428 0.0000
vt 9.1667 31.1667 0.5017
vt 9.0383 31.1667 0.5017
vt 9.0383 1.8333 0.5017
vt 9.1667 1.8333 0.5017
vt 31.1667 16.5000 0.2778
vt 31.1667 16.5550 0.2778
vt 1.8333 16.5550 0.2778
vt 1.8333 16.5000 0.2778
vt 31.1667 16.4450 0.2739
vt 31.1667 16.5550 0.2739
vt 1.8333 16.5550 0.2739
vt 1.8333 16.4450 0.2739
vt 14.6667 1.8333 0.5017
vt 14.7950 1.8333 0.5017
vt 14.7950 31.1667 0.5017
vt 14.6667 31.1667 0.5017
vt 31.1667 16.4450 0.4444
vt 31.1667 16.5550 0.4444
vt 1.8333 16.5550 0.4444
vt 1.8333 16.4450 0.4444
vt 31.1667 16.4450 0.4483
vt 31.1667 16.5550 0.4483
vt 1.8333 16.5550 0.4483
vt 1.8333 16.4450 0.4483
vt 17.4167 31.1667 0.5017
vt 17.2883 31.1667 0.5017
vt 17.2883 1.8333 0.5017
vt 17.4167 1.8333 0.5017
vt 31.1667 16.4450 0.5278
vt 31.1667 16.5550 0.5278
vt 1.8333 16.5550 0.5278
vt 1.8333 16.4450 0.5278
vt 31.1667 16.5000 0.5239
vt 31.1667 16.5550 0.5239
vt 1.8333 16.5550 0.5239
vt 1.8333 16.5000 0.5239
vt 22.8533 45.3428 0.6875
vt 22.8533 2.6672 0.0000
vt 25.1467 2.6672 0.3125
vt 25.1467 45.3428 1.0000
vt 15.7117 31.1667 0.5017
vt 15.5833 31.1667 0.5017
vt 15.5833 1.8333 0.5017
vt 15.7117 1.8333 0.5017
vt 31.1667 16.5000 0.4761
vt 31.1667 16.5550 0.4761
vt 1.8333 16.5550 0.4761
vt 1.8333 16.5000 0.4761
vt 31.1667 16.4450 0.4722
vt 31.1667 16.5550 0.4722
vt 1.8333 16.5550 0.4722
vt 1.8333 16.4450 0.4722
vt 22.0000 1.8333 0.5017
vt 22.1283 1.8333 0.5017
vt 22.1283 31.1667 0.5017
vt 22.0000 31.1667 0.5017
vt 31.1667 16.4450 0.6667
vt 31.1667 16.5550 0.6667
vt 1.8333 16.5550 0.6667
vt 1.8333 16.4450 0.6667
vt 31.1667 16.4450 0.6706
vt 31.1667 16.5550 0.6706
vt 1.8333 16.5550 0.6706
vt 1.8333 16.4450 0.6706
vt 22.7333 1.8333 0.5017
vt 22.8617 1.8333 0.5017
vt 22.8617 31.1667 0.5017
vt 22.7333 31.1667 0.5017
vt 31.1667 16.4450 0.6889
vt 31.1667 16.5550 0.6889
vt 1.8333 16.5550 0.6889
vt 1.8333 16.4450 0.6889
vt 31.1667 16.5000 0.6928
vt 31.1667 16.5550 0.6928
vt 1.8333 16.5550 0.6928
vt 1.8333 16.5000 0.6928
vt 34.6667 2.6672 0.6875
vt 34.6667 45.3428 0.0000
vt 33.2533 45.3428 0.3125
vt 33.2533 2.6672 1.0000
vt 23.8333 1.8333 0.5017
vt 23.9617 1.8333 0.5017
vt 23.9617 31.1667 0.5017
vt 23.8333 31.1667 0.5017
vt 31.1667 16.5000 0.7222
vt 31.1667 16.5550 0.7222
vt 1.8333 16.5550 0.7222
vt 1.8333 16.5000 0.7222
vt 31.1667 16.4450 0.7261
vt 31.1667 16.5550 0.7261
vt 1.8333 16.5550 0.7261
vt 1.8333 16.4450 0.7261
vt 18.3333 31.1667 0.5017
vt 18.2050 31.1667 0.5017
vt 18.2050 1.8333 0.5017
vt 18.3333 1.8333 0.5017
vt 31.1667 16.4450 0.5556
vt 31.1667 16.5550 0.5556
vt 1.8333 16.5550 0.5556
vt 1.8333 16.4450 0.5556
vt 31.1667 16.4450 0.5517
vt 31.1667 16.5550 0.5517
vt 1.8333 16.5550 0.5517
vt 1.8333 16.4450 0.5517
# 136 texture coords

g Street2Lanes80m
usemtl Material_Street
s 1
f 1/1/1 2/2/1 3/3/1 
f 3/3/1 4/4/1 1/1/1 
f 5/1/1 6/2/1 7/3/1 
f 7/3/1 8/4/1 5/1/1 
usemtl Material_Pavement
f 9/5/1 10/6/1 11/7/1 
f 11/7/1 12/8/1 9/5/1 
s 4
f 13/9/2 9/10/2 12/11/2 
f 12/11/2 14/12/2 13/9/2 
f 15/13/3 11/14/3 10/15/3 
f 10/15/3 16/16/3 15/13/3 
s 1
f 17/17/1 18/18/1 19/19/1 
f 19/19/1 20/20/1 17/17/1 
s 4
f 21/21/2 17/22/2 20/23/2 
f 20/23/2 22/24/2 21/21/2 
f 23/25/4 19/26/4 18/27/4 
f 18/27/4 24/28/4 23/25/4 
s 1
f 25/29/5 26/30/5 23/31/5 
f 23/31/5 24/32/1 25/29/5 
f 27/33/1 28/34/1 29/35/1 
f 29/35/1 30/36/1 27/33/1 
s 4
f 25/37/6 27/38/6 30/39/6 
f 30/39/6 26/40/6 25/37/6 
f 31/41/3 29/42/3 28/43/3 
f 28/43/3 32/44/3 31/41/3 
s 1
f 33/45/1 34/46/1 35/47/1 
f 35/47/1 36/48/1 33/45/1 
s 2
f 37/49/3 33/50/3 36/51/3 
f 36/51/3 38/52/3 37/49/3 
f 39/53/2 35/54/2 34/55/2 
f 34/55/2 40/56/2 39/53/2 
s 1
f 41/57/1 42/58/1 43/59/1 
f 43/59/1 44/60/1 41/57/1 
s 2
f 45/61/2 41/62/2 44/63/2 
f 44/63/2 46/64/2 45/61/2 
f 47/65/3 43/66/3 42/67/3 
f 42/67/3 48/68/3 47/65/3 
s 1
f 49/69/7 50/70/7 47/71/7 
f 47/71/7 48/72/7 49/69/7 
f 51/73/1 52/74/1 53/75/1 
f 53/75/1 54/76/1 51/73/1 
s 2
f 49/77/2 51/78/2 54/79/2 
f 54/79/2 50/80/2 49/77/2 
f 55/81/3 53/82/3 52/83/3 
f 52/83/3 56/84/3 55/81/3 
s 1
f 57/85/1 58/86/1 59/87/1 
f 59/87/1 60/88/1 57/85/1 
s 2
f 61/89/4 57/90/4 60/91/4 
f 60/91/4 62/92/4 61/89/4 
f 63/93/2 59/94/2 58/95/2 
f 58/95/2 64/96/2 63/93/2 
s 1
f 65/97/1 66/98/1 67/99/1 
f 67/99/1 68/100/1 65/97/1 
s 2
f 69/101/4 65/102/4 68/103/4 
f 68/103/4 70/104/4 69/101/4 
f 71/105/6 67/106/6 66/107/6 
f 66/107/6 72/108/6 71/105/6 
s 1
f 73/109/1 74/110/1 71/111/1 
f 71/111/1 72/112/1 73/109/1 
f 75/113/1 76/114/1 77/115/1 
f 77/115/1 78/116/1 75/113/1 
s 2
f 73/117/4 75/118/4 78/119/4 
f 78/119/4 74/120/4 73/117/4 
f 79/121/2 77/122/2 76/123/2 
f 76/123/2 80/124/2 79/121/2 
s 1
f 81/125/1 82/126/1 83/127/1 
f 83/127/1 84/128/1 81/125/1 
s 2
f 85/129/2 81/130/2 84/131/2 
f 84/131/2 86/132/2 85/129/2 
f 87/133/4 83/134/4 82/135/4 
f 82/135/4 88/136/4 87/133/4 
# 70 faces

