# 3ds Max Wavefront OBJ Exporter v0.97b - (c)2007 guruware
# File Created: 18.12.2013 12:17:41

mtllib Street1Lane50m.mtl

#
# object Street1Lane50m
#

v  -7.3500 0.1500 25.0000
v  -7.3500 0.3000 25.0000
v  -7.3500 0.3000 -25.0000
v  -7.3500 0.1500 -25.0000
v  -10.3500 0.0000 25.0000
v  -10.3500 0.3000 25.0000
v  -10.3500 0.3000 -25.0000
v  -10.3500 0.0000 -25.0000
v  -5.3500 0.0000 25.0000
v  -5.3500 0.3000 25.0000
v  -5.3500 0.3000 -25.0000
v  -5.3500 0.0000 -25.0000
v  7.0000 0.3000 25.0000
v  7.3500 0.3000 25.0000
v  7.3500 0.3000 -25.0000
v  7.0000 0.3000 -25.0000
v  7.0000 0.0000 25.0000
v  7.0000 0.0000 -25.0000
v  7.3500 0.1500 25.0000
v  10.0000 0.1500 25.0000
v  10.0000 0.1500 -25.0000
v  7.3500 0.1500 -25.0000
v  10.0000 0.3000 25.0000
v  10.3500 0.3000 25.0000
v  10.3500 0.3000 -25.0000
v  10.0000 0.3000 -25.0000
v  5.0000 0.3000 25.0000
v  5.3500 0.3000 25.0000
v  5.3500 0.3000 -25.0000
v  5.0000 0.3000 -25.0000
v  5.0000 0.0000 25.0000
v  5.0000 0.0000 -25.0000
v  -7.0000 0.3000 -25.0000
v  -7.0000 0.3000 25.0000
v  -7.0000 0.0000 -25.0000
v  -7.0000 0.0000 25.0000
v  -10.0000 0.1500 -25.0000
v  -10.0000 0.1500 25.0000
v  -10.0000 0.3000 -25.0000
v  -10.0000 0.3000 25.0000
v  -5.0000 0.3000 -25.0000
v  -5.0000 0.3000 25.0000
v  -5.0000 0.0000 -25.0000
v  -5.0000 0.0000 25.0000
v  10.3500 0.0000 -25.0000
v  10.3500 0.0000 25.0000
v  5.3500 0.0000 -25.0000
v  5.3500 0.0000 25.0000
v  -5.0000 0.0500 25.0000
v  5.0000 0.0500 25.0000
v  5.0000 0.0500 -25.0000
v  -5.0000 0.0500 -25.0000
# 52 vertices

vn -1.0000 0.0000 0.0000
vn -1.0000 0.0000 -0.0000
vn 0.0000 1.0000 -0.0000
vn 0.0000 1.0000 0.0000
vn -1.0000 -0.0000 -0.0000
vn 1.0000 -0.0000 -0.0000
vn 1.0000 0.0000 -0.0000
vn -0.0000 1.0000 0.0000
vn 1.0000 0.0000 0.0000
vn 1.0000 -0.0000 0.0000
# 10 vertex normals

vt 25.6667 16.5000 0.5817
vt 25.6667 16.5550 0.5817
vt 7.3333 16.5550 0.5817
vt 7.3333 16.5000 0.5817
vt 25.6667 16.4450 0.6150
vt 25.6667 16.5550 0.6150
vt 7.3333 16.5550 0.6150
vt 7.3333 16.4450 0.6150
vt 25.6667 16.4450 0.5594
vt 25.6667 16.5550 0.5594
vt 7.3333 16.5550 0.5594
vt 7.3333 16.4450 0.5594
vt 13.9333 25.6667 0.5017
vt 13.8050 25.6667 0.5017
vt 13.8050 7.3333 0.5017
vt 13.9333 7.3333 0.5017
vt 25.6667 16.4450 0.4222
vt 25.6667 16.5550 0.4222
vt 7.3333 16.5550 0.4222
vt 7.3333 16.4450 0.4222
vt 20.0800 37.3333 0.8472
vt 18.6667 37.3333 0.5347
vt 18.6667 10.6667 0.1528
vt 20.0800 10.6667 0.4653
vt 12.8333 25.6667 0.5017
vt 12.7050 25.6667 0.5017
vt 12.7050 7.3333 0.5017
vt 12.8333 7.3333 0.5017
vt 25.6667 16.5000 0.3889
vt 25.6667 16.5550 0.3889
vt 7.3333 16.5550 0.3889
vt 7.3333 16.5000 0.3889
vt 14.6667 25.6667 0.5017
vt 14.5383 25.6667 0.5017
vt 14.5383 7.3333 0.5017
vt 14.6667 7.3333 0.5017
vt 25.6667 16.4450 0.4444
vt 25.6667 16.5550 0.4444
vt 7.3333 16.5550 0.4444
vt 7.3333 16.4450 0.4444
vt 19.0667 7.3333 0.5017
vt 19.1950 7.3333 0.5017
vt 19.1950 25.6667 0.5017
vt 19.0667 25.6667 0.5017
vt 25.6667 16.4450 0.5778
vt 25.6667 16.5550 0.5778
vt 7.3333 16.5550 0.5778
vt 7.3333 16.4450 0.5778
vt 27.9200 10.6667 0.8472
vt 29.3333 10.6667 0.5347
vt 29.3333 37.3333 0.1528
vt 27.9200 37.3333 0.4653
vt 20.1667 7.3333 0.5017
vt 20.2950 7.3333 0.5017
vt 20.2950 25.6667 0.5017
vt 20.1667 25.6667 0.5017
vt 25.6667 16.5000 0.6111
vt 25.6667 16.5550 0.6111
vt 7.3333 16.5550 0.6111
vt 7.3333 16.5000 0.6111
vt 18.3333 7.3333 0.5017
vt 18.4617 7.3333 0.5017
vt 18.4617 25.6667 0.5017
vt 18.3333 25.6667 0.5017
vt 25.6667 16.4450 0.5556
vt 25.6667 16.5550 0.5556
vt 7.3333 16.5550 0.5556
vt 7.3333 16.4450 0.5556
vt 25.6667 16.5000 0.4183
vt 25.6667 16.5550 0.4183
vt 7.3333 16.5550 0.4183
vt 7.3333 16.5000 0.4183
vt 25.6667 16.4450 0.3850
vt 25.6667 16.5550 0.3850
vt 7.3333 16.5550 0.3850
vt 7.3333 16.4450 0.3850
vt 25.6667 16.4450 0.4406
vt 25.6667 16.5550 0.4406
vt 7.3333 16.5550 0.4406
vt 7.3333 16.4450 0.4406
vt 7.0078 0.0000 0.0000
vt 7.0078 1.0000 0.0000
vt 2.0022 1.0000 0.0000
vt 2.0022 0.0000 0.0000
# 84 texture coords

g Street1Lane50m
usemtl Material_Pavement
s 2
f 1/1/1 2/2/1 3/3/1 
f 3/3/1 4/4/1 1/1/1 
f 5/5/1 6/6/1 7/7/1 
f 7/7/1 8/8/1 5/5/1 
f 9/9/2 10/10/2 11/11/2 
f 11/11/2 12/12/2 9/9/2 
s 1
f 13/13/3 14/14/3 15/15/3 
f 15/15/3 16/16/3 13/13/3 
s 2
f 17/17/2 13/18/2 16/19/2 
f 16/19/2 18/20/2 17/17/2 
s 1
f 19/21/3 20/22/3 21/23/3 
f 21/23/3 22/24/3 19/21/3 
f 23/25/4 24/26/4 25/27/4 
f 25/27/4 26/28/3 23/25/4 
s 2
f 20/29/1 23/30/1 26/31/2 
f 26/31/2 21/32/2 20/29/1 
s 1
f 27/33/3 28/34/3 29/35/3 
f 29/35/3 30/36/3 27/33/3 
s 2
f 31/37/5 27/38/5 30/39/5 
f 30/39/5 32/40/2 31/37/5 
s 1
f 33/41/3 3/42/3 2/43/3 
f 2/43/3 34/44/3 33/41/3 
s 2
f 35/45/6 33/46/7 34/47/6 
f 34/47/6 36/48/6 35/45/6 
s 1
f 4/49/8 37/50/8 38/51/8 
f 38/51/8 1/52/8 4/49/8 
f 39/53/3 7/54/3 6/55/3 
f 6/55/3 40/56/3 39/53/3 
s 2
f 37/57/9 39/58/7 40/59/9 
f 40/59/9 38/60/9 37/57/9 
s 1
f 41/61/3 11/62/3 10/63/3 
f 10/63/3 42/64/3 41/61/3 
s 2
f 43/65/7 41/66/7 42/67/7 
f 42/67/7 44/68/7 43/65/7 
f 22/69/7 15/70/7 14/71/7 
f 14/71/7 19/72/7 22/69/7 
f 45/73/10 25/74/9 24/75/10 
f 24/75/10 46/76/10 45/73/10 
f 47/77/9 29/78/9 28/79/9 
f 28/79/9 48/80/9 47/77/9 
usemtl Material_Street
s 1
f 49/81/3 50/82/3 51/83/3 
f 51/83/3 52/84/3 49/81/3 
# 42 faces

